<svg id="Layer_1" data-name="Layer 1" xmlns="http://www.w3.org/2000/svg" width="8" height="8" viewBox="0 0 8 8"><rect width="8" height="8" fill="#d3d4d6"/><rect width="1" height="1" fill="#fff"/><rect x="1" width="1" height="1" fill="#d3d4d6"/><rect x="2" width="1" height="1" fill="#fff"/><rect x="3" width="1" height="1" fill="#d3d4d6"/><rect x="4" width="1" height="1" fill="#fff"/><rect x="5" width="1" height="1" fill="#d3d4d6"/><rect x="6" width="1" height="1" fill="#fff"/><rect x="7" width="1" height="1" fill="#d3d4d6"/><rect y="1" width="1" height="1" fill="#d3d4d6"/><rect x="1" y="1" width="1" height="1" fill="#fff"/><rect x="2" y="1" width="1" height="1" fill="#d3d4d6"/><rect x="3" y="1" width="1" height="1" fill="#fff"/><rect x="4" y="1" width="1" height="1" fill="#d3d4d6"/><rect x="5" y="1" width="1" height="1" fill="#fff"/><rect x="6" y="1" width="1" height="1" fill="#d3d4d6"/><rect x="7" y="1" width="1" height="1" fill="#fff"/><rect y="2" width="1" height="1" fill="#fff"/><rect x="1" y="2" width="1" height="1"/><rect x="2" y="2" width="1" height="1" fill="#fff"/><rect x="3" y="2" width="1" height="1" fill="#d3d4d6"/><rect x="4" y="2" width="1" height="1" fill="#fff"/><rect x="5" y="2" width="1" height="1" fill="#d3d4d6"/><rect x="6" y="2" width="1" height="1"/><rect x="7" y="2" width="1" height="1" fill="#d3d4d6"/><rect y="3" width="1" height="1" fill="#d3d4d6"/><rect x="1" y="3" width="1" height="1"/><rect x="2" y="3" width="1" height="1" fill="#d3d4d6"/><rect x="3" y="3" width="1" height="1" fill="#fff"/><rect x="4" y="3" width="1" height="1" fill="#d3d4d6"/><rect x="5" y="3" width="1" height="1" fill="#fff"/><rect x="6" y="3" width="1" height="1"/><rect x="7" y="3" width="1" height="1" fill="#fff"/><rect y="4" width="1" height="1" fill="#fff"/><rect x="1" y="4" width="1" height="1" fill="#d3d4d6"/><rect x="2" y="4" width="1" height="1" fill="#fff"/><rect x="3" y="4" width="1" height="1" fill="#d3d4d6"/><rect x="4" y="4" width="1" height="1" fill="#fff"/><rect x="5" y="4" width="1" height="1" fill="#d3d4d6"/><rect x="6" y="4" width="1" height="1" fill="#fff"/><rect x="7" y="4" width="1" height="1" fill="#d3d4d6"/><rect y="5" width="1" height="1" fill="#d3d4d6"/><rect x="1" y="5" width="1" height="1" fill="#fff"/><rect x="2" y="5" width="1" height="1" fill="#d3d4d6"/><rect x="3" y="5" width="1" height="1"/><rect x="4" y="5" width="1" height="1"/><rect x="5" y="5" width="1" height="1" fill="#fff"/><rect x="6" y="5" width="1" height="1" fill="#d3d4d6"/><rect x="7" y="5" width="1" height="1" fill="#fff"/><rect y="6" width="1" height="1" fill="#fff"/><rect x="1" y="6" width="1" height="1" fill="#d3d4d6"/><rect x="2" y="6" width="1" height="1"/><rect x="3" y="6" width="1" height="1" fill="#d3d4d6"/><rect x="4" y="6" width="1" height="1" fill="#fff"/><rect x="5" y="6" width="1" height="1"/><rect x="6" y="6" width="1" height="1" fill="#fff"/><rect x="7" y="6" width="1" height="1" fill="#d3d4d6"/><rect y="7" width="1" height="1" fill="#d3d4d6"/><rect x="1" y="7" width="1" height="1" fill="#fff"/><rect x="2" y="7" width="1" height="1" fill="#d3d4d6"/><rect x="3" y="7" width="1" height="1" fill="#fff"/><rect x="4" y="7" width="1" height="1" fill="#d3d4d6"/><rect x="5" y="7" width="1" height="1" fill="#fff"/><rect x="6" y="7" width="1" height="1" fill="#d3d4d6"/><rect x="7" y="7" width="1" height="1" fill="#fff"/></svg>